<svg xmlns="http://www.w3.org/2000/svg" xmlns:xlink="http://www.w3.org/1999/xlink" viewBox="0 0 274 274"><defs><style>.cls-1{fill:url(#Degradado_sin_nombre_10);}.cls-2{fill:#171923;}.cls-3{fill:url(#Degradado_sin_nombre_26);}.cls-4{fill:url(#Degradado_sin_nombre_26-2);}.cls-5{fill:url(#Degradado_sin_nombre_26-3);}.cls-6{fill:#442f21;}.cls-7{fill:url(#Degradado_sin_nombre_59);}.cls-8{fill:url(#Degradado_sin_nombre_26-4);}.cls-9{fill:#6e727f;}.cls-10{fill:url(#Degradado_sin_nombre_59-2);}.cls-11{fill:url(#Degradado_sin_nombre_29);}.cls-12{fill:url(#Degradado_sin_nombre_13);}.cls-13{fill:url(#Degradado_sin_nombre_15);}.cls-14{fill:url(#Degradado_sin_nombre_29-2);}.cls-15{fill:url(#Degradado_sin_nombre_29-3);}.cls-16{fill:url(#Degradado_sin_nombre_26-5);}.cls-17{fill:url(#Degradado_sin_nombre_59-3);}.cls-18{fill:url(#Degradado_sin_nombre_26-6);}</style><linearGradient id="Degradado_sin_nombre_10" y1="137" x2="274" y2="137" gradientUnits="userSpaceOnUse"><stop offset="0.01" stop-color="#ffdf8f"/><stop offset="1" stop-color="#ffd364"/></linearGradient><linearGradient id="Degradado_sin_nombre_26" x1="145.19" y1="236.71" x2="216.32" y2="236.71" gradientUnits="userSpaceOnUse"><stop offset="0.01" stop-color="#222530"/><stop offset="1" stop-color="#2c2f42"/></linearGradient><linearGradient id="Degradado_sin_nombre_26-2" x1="182.35" y1="122.08" x2="201.5" y2="122.08" xlink:href="#Degradado_sin_nombre_26"/><linearGradient id="Degradado_sin_nombre_26-3" x1="74.19" y1="64.57" x2="196.35" y2="64.57" xlink:href="#Degradado_sin_nombre_26"/><linearGradient id="Degradado_sin_nombre_59" x1="162.76" y1="148.42" x2="190.38" y2="148.42" gradientUnits="userSpaceOnUse"><stop offset="0.01" stop-color="#eaeaea"/><stop offset="1" stop-color="#bcbcbc"/></linearGradient><linearGradient id="Degradado_sin_nombre_26-4" x1="185.07" y1="140.56" x2="190.23" y2="140.56" xlink:href="#Degradado_sin_nombre_26"/><linearGradient id="Degradado_sin_nombre_59-2" x1="175.09" y1="121.34" x2="183.77" y2="121.34" xlink:href="#Degradado_sin_nombre_59"/><linearGradient id="Degradado_sin_nombre_29" x1="135.27" y1="204.87" x2="179.06" y2="204.87" gradientUnits="userSpaceOnUse"><stop offset="0.01" stop-color="#46bac6"/><stop offset="1" stop-color="#84ecf7"/></linearGradient><linearGradient id="Degradado_sin_nombre_13" x1="92.03" y1="117.74" x2="178.9" y2="117.74" gradientUnits="userSpaceOnUse"><stop offset="0.01" stop-color="#fcead9"/><stop offset="1" stop-color="#f4cfb3"/></linearGradient><linearGradient id="Degradado_sin_nombre_15" x1="116.99" y1="223.12" x2="148.49" y2="145.87" gradientUnits="userSpaceOnUse"><stop offset="0.01" stop-color="#fcead9"/><stop offset="1" stop-color="#f4be84"/></linearGradient><linearGradient id="Degradado_sin_nombre_29-2" x1="133.44" y1="233.91" x2="133.69" y2="273.16" xlink:href="#Degradado_sin_nombre_29"/><linearGradient id="Degradado_sin_nombre_29-3" x1="91.44" y1="204.87" x2="135.27" y2="204.87" xlink:href="#Degradado_sin_nombre_29"/><linearGradient id="Degradado_sin_nombre_26-5" x1="54.18" y1="236.79" x2="122.52" y2="236.79" xlink:href="#Degradado_sin_nombre_26"/><linearGradient id="Degradado_sin_nombre_59-3" x1="86.77" y1="121.34" x2="95.44" y2="121.34" xlink:href="#Degradado_sin_nombre_59"/><linearGradient id="Degradado_sin_nombre_26-6" x1="69.03" y1="122.08" x2="88.18" y2="122.08" xlink:href="#Degradado_sin_nombre_26"/></defs><title>Asset 4</title><g id="Layer_2" data-name="Layer 2"><g id="OBJECTS"><circle class="cls-1" cx="137" cy="137" r="137"/><path class="cls-2" d="M221.27,215.64l6.52,24a137.16,137.16,0,0,1-35.86,23h0s-1.64-50.85,24.39-54.34A14.17,14.17,0,0,1,221.27,215.64Z"/><path class="cls-3" d="M194.48,200.76l17.12,5a14.19,14.19,0,0,1,4.72,2.42c-26,3.49-24.39,54.34-24.39,54.34h0a136.3,136.3,0,0,1-43.72,11L151,256.92l-5.77-8.4,8.78,2,37.44-50.7Z"/><path class="cls-4" d="M194.85,105.19a15.28,15.28,0,0,1,6.56,14l-1.09,9.4A15.36,15.36,0,0,1,190.23,141l-3.15-2-2,3.15a17.63,17.63,0,0,1-2.72,0,3.13,3.13,0,0,0,.33-1.06l4.47-38.57a3.25,3.25,0,0,0,0-.54A18.19,18.19,0,0,1,194.85,105.19Z"/><path class="cls-2" d="M196.39,99.46l-1.54,5.73a18.19,18.19,0,0,0-7.69-3.22,3.3,3.3,0,0,0-.63-1.76c.28-1.06.54-2.15.77-3.28l4.21,1.17,3.63,1Z"/><path class="cls-5" d="M135.27,30c74.75,0,59.87,69.09,59.87,69.09l-3.63-1,.82-5.57a10.84,10.84,0,0,1-4.11-1.18c3-24.4-6.12-57.89-50.57-56.64C86.11,36.16,80.91,67,84.24,89.8c-2.09,2.53-6,2.73-6,2.73L79,98.1l-3.63,1S60.52,30,135.27,30Z"/><path class="cls-6" d="M187.49,162.46c3.63,10.64,8.49,31.23,7,38.3l-3.07-.89-13.79-4.05,1.44-2.18-21.24-13h-.1l-1.11-16.56,5.86-3.08a25.08,25.08,0,0,0,6.89-5.21H175a11,11,0,0,0,8.26-3.73A105.9,105.9,0,0,1,187.49,162.46Z"/><path class="cls-2" d="M177.62,195.82l13.79,4.05L154,250.57l-8.78-2,5.77,8.4-2.75,16.63q-5.55.45-11.21.45h-.61L149,217.46l7.6,10.08,21-31.72Z"/><path class="cls-7" d="M190.38,141.08l-6.13,9.65a11.79,11.79,0,0,1-1,1.38,11,11,0,0,1-8.26,3.73h-12.2a5.12,5.12,0,0,0,.48-2.18,5.3,5.3,0,0,0-.3-1.74h12a7,7,0,0,0,6-3.29l.34-.53,3.79-6a17.61,17.61,0,0,0,5.16-1.14Z"/><path class="cls-8" d="M187.08,139l3.15,2a17.61,17.61,0,0,1-5.16,1.14Z"/><path class="cls-6" d="M188.22,91.35c-.23,1.92-.54,3.79-.92,5.58l-.2-.06-.93,2.92a4,4,0,0,0-2.4-1.15,4,4,0,0,0-2.79.7,3.27,3.27,0,0,0-1.4,2.29l-.68,5.89c-4.49-7.78-12.48-25.33-8-45.93a19.35,19.35,0,0,0,.57-2.43c-.21.81-.41,1.63-.57,2.43-1.93,6.67-9.85,24.93-39,27.07C99,91.06,95.06,98.74,92,111L91,101.63a3.26,3.26,0,0,0-1.39-2.29,4,4,0,0,0-2.79-.7,3.14,3.14,0,0,0-.75.17c-.69-2.78-1.32-5.82-1.78-9C80.91,67,86.11,36.16,137.65,34.71,182.1,33.46,191.18,67,188.22,91.35Z"/><path class="cls-9" d="M187.16,102a3.25,3.25,0,0,1,0,.54l-4.47,38.57a3.13,3.13,0,0,1-.33,1.06,4.29,4.29,0,0,1-3.85,1.93c-.21-.38.13-1.09.13-1.09l3.75-32.33a41.77,41.77,0,0,0,4.15-10.44A3.3,3.3,0,0,1,187.16,102Z"/><path class="cls-9" d="M186.17,99.8a4.59,4.59,0,0,1,.36.41,41.77,41.77,0,0,1-4.15,10.44l1.39-12a4,4,0,0,1,2.4,1.15Z"/><path class="cls-10" d="M183.77,98.64l-1.39,12L178.63,143l-.13,1.09a3.65,3.65,0,0,1-3.39-3.87L176.64,127l2.26-19.46.68-5.89a3.27,3.27,0,0,1,1.4-2.29A4,4,0,0,1,183.77,98.64Z"/><path class="cls-6" d="M181.28,148.1l-.34.53a7,7,0,0,1-6,3.29h-2.83a15.15,15.15,0,0,0,1-2.28L176.64,127l-1.53,13.22a3.65,3.65,0,0,0,3.39,3.87,3.48,3.48,0,0,0,.72,0C179.86,145.3,180.55,146.65,181.28,148.1Z"/><polygon class="cls-11" points="179.06 193.64 177.62 195.82 177.61 195.82 156.61 227.54 149.01 217.46 149.01 217.45 143.1 209.62 135.27 229.06 139.85 206.21 158.25 188.52 157.72 180.69 157.82 180.68 179.06 193.64"/><path class="cls-12" d="M178.9,107.52,176.64,127l-3.54,22.66a15.15,15.15,0,0,1-1,2.28h-9.19a5.3,5.3,0,0,0-5-3.55H142.67a5.29,5.29,0,1,0,0,10.57H158a5.29,5.29,0,0,0,3.74-1.55,5.37,5.37,0,0,0,1.07-1.55h6.6a25.08,25.08,0,0,1-6.89,5.21l-5.86,3.08-16,8.44a11.4,11.4,0,0,1-10.62,0l-16.07-8.46-5.82-3.06c-5.36-2.83-9.12-6.86-10.64-11.41l-2.72-15.57L92,111c3-12.25,6.93-19.93,39.83-22.33,29.15-2.14,37.07-20.4,39-27.07C166.42,82.19,174.41,99.74,178.9,107.52Z"/><path class="cls-2" d="M162.94,151.92a5.3,5.3,0,0,1,.3,1.74,5.12,5.12,0,0,1-.48,2.18h-4.91v-3.92Z"/><path class="cls-2" d="M162.94,151.92h-5.09v3.92h4.91a5.37,5.37,0,0,1-1.07,1.55,5.29,5.29,0,0,1-3.74,1.55H142.67a5.29,5.29,0,1,1,0-10.57H158A5.3,5.3,0,0,1,162.94,151.92Z"/><path class="cls-13" d="M157.72,180.69l.53,7.83-18.4,17.69-4.58,22.85L130,205.62l-17.79-17.1.53-7.83,1.12-16.58L130,172.57a11.4,11.4,0,0,0,10.62,0l16-8.44Z"/><path class="cls-14" d="M149,217.45h0L136.39,274l-2.69,0-16-51.42,9.76-12.79,7.81,19.31,7.83-19.44Z"/><polygon class="cls-15" points="117.7 222.54 113.89 227.54 92.89 195.82 92.88 195.82 91.44 193.64 112.67 180.68 112.77 180.69 112.24 188.52 130.03 205.62 135.27 229.06 127.46 209.75 117.7 222.54"/><path class="cls-2" d="M117.7,222.54l16,51.42a137.42,137.42,0,0,1-14-1l-2.11-16,4.93-8.4-9.43,1.68L76.4,200.65l16.48-4.83h0l21,31.72Z"/><path class="cls-16" d="M122.52,248.52l-4.93,8.4,2.11,16a135.86,135.86,0,0,1-41.1-12s1.61-49.38-24.42-52.76a14.19,14.19,0,0,1,4.72-2.42l8.86-2.59h0l8.64-2.53,36.69,49.55Z"/><path class="cls-6" d="M113.89,164.11l-1.12,16.58h-.1l-21.23,13,1.44,2.18L76.4,200.65l-8.64,2.53c0-.34,1-7.53,8.64-24.29,5.47-12,10-27.64,12.3-36A3.89,3.89,0,0,0,92,144.07a3.65,3.65,0,0,0,3.39-3.87l-.71-6.13,2.72,15.57c1.52,4.55,5.28,8.58,10.64,11.41Z"/><path class="cls-17" d="M92,144.07l-4.68-40.43v0l-.57-5a4,4,0,0,1,2.79.7A3.26,3.26,0,0,1,91,101.63L92,111l2.68,23.08.71,6.13A3.65,3.65,0,0,1,92,144.07Z"/><path class="cls-9" d="M88.7,142.88a3.19,3.19,0,0,1-.52-.74,2.91,2.91,0,0,1-.32-1.06l-4.47-38.57a2.44,2.44,0,0,1,0-.54,3.33,3.33,0,0,1,1-2.17,4.39,4.39,0,0,1,2.41-1.16s.4,3.45.57,5v0L92,144.07A3.89,3.89,0,0,1,88.7,142.88Z"/><path class="cls-18" d="M87.86,141.08a2.91,2.91,0,0,0,.32,1.06c-9,.65-17-5.29-18-13.52l-1.09-9.4a15.3,15.3,0,0,1,6.56-14,18.3,18.3,0,0,1,7.7-3.22,2.44,2.44,0,0,0,0,.54Z"/><path class="cls-2" d="M83.44,96.87l.92,2.93a3.33,3.33,0,0,0-1,2.17,18.3,18.3,0,0,0-7.7,3.22l-1.53-5.73,1.25-.35,3.63-1Z"/><path class="cls-2" d="M54.18,208.2C80.21,211.58,78.6,261,78.6,261A136.78,136.78,0,0,1,43.41,237l5.82-21.4A14.17,14.17,0,0,1,54.18,208.2Z"/></g></g></svg>